<svg width="45" height="45" viewBox="0 0 45 45" fill="none" xmlns="http://www.w3.org/2000/svg">
<path d="M0 22.5895C0 38.6117 14.0434 45.2786 23.3647 44.9911C34.2256 44.6567 45.908 36.1374 44.9441 20.8508C44.0385 6.50711 32.3562 -0.0729479 22.1486 0.000609713C10.2851 0.0942285 0 8.59347 0 22.5895Z" fill="#F79429"/>
<path d="M22.8731 42.5704C22.7114 42.5704 22.5432 42.5704 22.3815 42.5637C17.53 42.3965 12.7367 40.2834 9.23072 36.7727C5.47891 33.0146 3.42188 27.9324 3.44775 22.4691C3.50597 9.1284 14.7873 2.94287 22.4397 2.94287H22.5044C32.8736 2.98968 41.3864 11.3217 41.6257 22.6162C41.7292 27.6448 40.1767 32.6468 36.2696 36.6189C32.6213 40.3101 27.3429 42.5704 22.8731 42.5704ZM22.4268 5.16297C15.5635 5.16297 5.41422 10.9673 5.38834 22.4691C5.36894 31.0686 11.8117 39.9089 22.5432 40.2834C26.6314 40.4171 31.2435 38.8523 34.6396 35.4018C38.1714 31.8109 39.7563 27.1299 39.6851 22.6496C39.5299 12.9333 31.8451 5.20309 22.5173 5.16297C22.4979 5.1496 22.4462 5.16297 22.4268 5.16297Z" fill="#D25116"/>
<path d="M18.6168 2.11375C18.1704 1.47848 13.5971 1.65903 8.67446 6.03905C3.78417 10.3923 3.05321 15.207 3.93295 15.4611C4.93559 15.7487 6.15816 11.0945 10.3822 7.18254C14.2634 3.60496 19.503 3.3776 18.6168 2.11375ZM38.275 19.6138C36.716 19.8411 38.3332 24.6692 34.7172 30.0723C31.5799 34.7599 28.0222 36.4585 28.4362 37.4883C28.9925 38.8658 34.6913 35.4353 37.3306 29.845C39.7175 24.7829 39.4329 19.4399 38.275 19.6138Z" fill="#FEFFFA"/>
<path d="M29.5229 16.9858C28.7725 10.2654 21.2042 9.70365 18.0669 12.2848C15.0137 14.7992 15.3048 18.3032 17.4459 18.7111C19.1342 19.0321 19.5741 17.6479 20.0657 17.0126C21.1783 15.5883 22.9507 15.4545 24.1086 16.598C25.4218 17.902 24.6132 21.0181 22.6402 21.1452C21.1719 21.2388 20.428 21.1586 20.2404 21.4194C19.9752 21.7871 20.014 24.6826 20.2857 25.0036C20.5962 25.3714 21.8381 25.1441 22.9055 25.1842C24.3738 25.2444 25.9328 27.4912 24.9043 29.1763C23.8369 30.9217 20.9972 30.1393 19.9752 29.0827C18.6232 27.6851 17.2713 28.4876 16.8185 29.0359C16.1069 29.9052 15.3501 31.8846 17.9764 33.8105C20.5962 35.7363 28.5461 36.1041 30.1503 30.1393C31.5476 24.9301 28.2874 22.7902 28.2874 22.7902C28.2874 22.7902 29.9498 20.8175 29.5229 16.9858Z" fill="#D25116"/>
</svg>
