<svg width="53" height="52" viewBox="0 0 53 52" fill="none" xmlns="http://www.w3.org/2000/svg">
<path d="M0 25.4235C0 43.601 16.4326 51.696 27.3574 51.3091C39.405 50.8766 53.8347 41.4844 52.9623 24.1413C52.1353 7.70868 38.3125 -0.0827898 26.3408 0.000663168C12.4269 0.0992894 0 9.54465 0 25.4235Z" fill="#FCC417"/>
<path d="M26.9705 48.1455C26.7808 48.1455 26.5836 48.1455 26.3939 48.1379C20.7039 47.9483 15.0822 45.5509 10.9703 41.5679C6.57002 37.3042 4.15747 31.5384 4.18782 25.3401C4.2561 10.2047 17.4872 3.18711 26.4622 3.18711H26.538C38.6994 3.24022 48.6834 12.6932 48.9641 25.507C49.0855 31.2121 46.7488 37.198 42.1665 41.7044C37.8876 45.8999 32.2128 48.1455 26.9705 48.1455ZM26.447 5.70588C18.3976 5.70588 6.49415 12.2911 6.46381 25.3401C6.44105 35.0965 13.9973 45.126 26.5836 45.5509C31.3783 45.7026 36.3172 43.8666 40.3078 39.9443C44.4501 35.8703 46.7792 30.6204 46.6957 25.5373C46.5136 14.514 37.5007 5.74381 26.5608 5.69829C26.5305 5.69829 26.4698 5.70588 26.447 5.70588Z" fill="#FA912C"/>
<path d="M21.8799 2.58004C21.3564 1.85931 15.4236 1.99586 9.81712 7.47341C4.40785 12.7613 3.82368 17.7457 4.86305 18.034C6.03898 18.3602 7.47286 13.0799 12.4269 8.64176C16.9789 4.57532 22.9268 4.01391 21.8799 2.58004ZM44.8294 22.2067C43.0011 22.4646 44.8977 27.9422 40.6568 34.0722C36.9773 39.3904 32.8046 41.3174 33.2902 42.4857C33.9426 44.0486 40.6264 40.1566 43.7218 33.8142C46.5288 28.0711 46.195 22.0094 44.8294 22.2067Z" fill="#FEFFFA"/>
<path d="M20.3853 15.03C19.9908 15.6142 20.3473 20.7351 20.5825 20.9627C21.0377 21.4179 24.4972 19.7868 24.4972 19.7868L24.3683 33.4807C24.3683 33.4807 21.8267 33.4503 21.5612 33.549C21.0377 33.7462 21.106 39.0265 21.4929 39.2845C21.8798 39.5424 32.2508 39.679 32.6453 39.1555C33.0398 38.632 32.9411 34.0118 32.7591 33.7993C32.4328 33.4048 29.952 33.5641 29.952 33.5641C29.952 33.5641 30.1644 13.3989 30.0962 12.754C30.0279 12.1091 29.3147 11.7071 28.465 11.9043C27.6153 12.1016 20.6356 14.6507 20.3853 15.03Z" fill="#FA912C"/>
</svg>
