<svg width="43" height="43" viewBox="0 0 43 43" fill="none" xmlns="http://www.w3.org/2000/svg">
<path d="M5.37508 17.4689H13.4376V34.9377H5.37508C5.01869 34.9377 4.6769 34.7961 4.4249 34.5441C4.1729 34.2921 4.03133 33.9503 4.03133 33.5939V18.8127C4.03133 18.4563 4.1729 18.1145 4.4249 17.8625C4.6769 17.6105 5.01869 17.4689 5.37508 17.4689V17.4689Z" stroke="#F4F3F6" stroke-width="4" stroke-linecap="round" stroke-linejoin="round"/>
<path d="M13.4376 17.4688L20.1563 4.03133C21.5819 4.03133 22.949 4.59762 23.957 5.60563C24.965 6.61364 25.5313 7.98079 25.5313 9.40633V13.4376H35.9286C36.3097 13.4366 36.6865 13.5173 37.0339 13.674C37.3812 13.8308 37.691 14.0601 37.9424 14.3464C38.1937 14.6328 38.3809 14.9697 38.4913 15.3344C38.6018 15.6992 38.6328 16.0833 38.5825 16.461L36.5669 32.586C36.4853 33.2333 36.1711 33.8289 35.6828 34.2616C35.1945 34.6943 34.5654 34.9345 33.913 34.9376H13.4376" stroke="#F4F3F6" stroke-width="4" stroke-linecap="round" stroke-linejoin="round"/>
</svg>
