<svg width="15" height="15" viewBox="0 0 15 15" fill="none" xmlns="http://www.w3.org/2000/svg">
<g clip-path="url(#clip0_539_355)">
<path d="M5.00016 5.4999H6.00015M9.00014 9.49988H10.0001M10.0001 4.9999L5.00016 9.99988M6.80115 0.789913L5.67215 1.91691C5.48712 2.10227 5.23606 2.20658 4.97416 2.20691H3.19616C2.93413 2.20691 2.68283 2.311 2.49754 2.49629C2.31226 2.68157 2.20816 2.93287 2.20816 3.1949V4.9729C2.20784 5.23481 2.10353 5.48587 1.91817 5.6709L0.790169 6.80189C0.604958 6.98717 0.500913 7.23842 0.500913 7.50039C0.500913 7.76236 0.604958 8.01361 0.790169 8.19889L1.92017 9.32788C2.01181 9.41955 2.0845 9.52837 2.13409 9.64814C2.18368 9.7679 2.20919 9.89626 2.20916 10.0259V11.8039C2.20916 12.3499 2.65116 12.7919 3.19716 12.7919H4.97516C5.23715 12.7919 5.48815 12.8959 5.67315 13.0819L6.80315 14.2109C6.98842 14.3961 7.23967 14.5001 7.50165 14.5001C7.76362 14.5001 8.01487 14.3961 8.20014 14.2109L9.32914 13.0809C9.51434 12.8959 9.76537 12.7919 10.0271 12.7919H11.8051C12.0672 12.7919 12.3185 12.6878 12.5038 12.5025C12.689 12.3172 12.7931 12.0659 12.7931 11.8039V10.0259C12.7931 9.76388 12.8971 9.51288 13.0831 9.32788L14.2121 8.19789C14.3973 8.01261 14.5014 7.76136 14.5014 7.49939C14.5014 7.23742 14.3973 6.98617 14.2121 6.80089L13.0821 5.6719C12.8971 5.4867 12.7932 5.23566 12.7931 4.9739V3.19591C12.7931 2.93387 12.689 2.68257 12.5038 2.49729C12.3185 2.312 12.0672 2.20791 11.8051 2.20791H10.0271C9.76523 2.20758 9.51417 2.10327 9.32914 1.91791L8.19814 0.789913C8.01287 0.604702 7.76162 0.500657 7.49965 0.500657C7.23767 0.500657 6.98642 0.604702 6.80115 0.789913V0.789913Z" stroke="#7A9A01" stroke-width="1.5"/>
</g>
<defs>
<clipPath id="clip0_539_355">
<rect width="14.3" height="14.3" fill="white" transform="scale(1.04895)"/>
</clipPath>
</defs>
</svg>
