<svg width="30" height="30" viewBox="0 0 30 30" fill="none" xmlns="http://www.w3.org/2000/svg">
<g clip-path="url(#clip0_537_312)">
<path d="M0 0.9375C0 0.68886 0.0987721 0.450403 0.274587 0.274587C0.450403 0.0987721 0.68886 0 0.9375 0L6.5625 0C6.81114 0 7.0496 0.0987721 7.22541 0.274587C7.40123 0.450403 7.5 0.68886 7.5 0.9375C7.5 1.18614 7.40123 1.4246 7.22541 1.60041C7.0496 1.77623 6.81114 1.875 6.5625 1.875H1.875V6.5625C1.875 6.81114 1.77623 7.0496 1.60041 7.22541C1.4246 7.40123 1.18614 7.5 0.9375 7.5C0.68886 7.5 0.450403 7.40123 0.274587 7.22541C0.0987721 7.0496 0 6.81114 0 6.5625V0.9375ZM22.5 0.9375C22.5 0.68886 22.5988 0.450403 22.7746 0.274587C22.9504 0.0987721 23.1889 0 23.4375 0L29.0625 0C29.3111 0 29.5496 0.0987721 29.7254 0.274587C29.9012 0.450403 30 0.68886 30 0.9375V6.5625C30 6.81114 29.9012 7.0496 29.7254 7.22541C29.5496 7.40123 29.3111 7.5 29.0625 7.5C28.8139 7.5 28.5754 7.40123 28.3996 7.22541C28.2238 7.0496 28.125 6.81114 28.125 6.5625V1.875H23.4375C23.1889 1.875 22.9504 1.77623 22.7746 1.60041C22.5988 1.4246 22.5 1.18614 22.5 0.9375ZM0.9375 22.5C1.18614 22.5 1.4246 22.5988 1.60041 22.7746C1.77623 22.9504 1.875 23.1889 1.875 23.4375V28.125H6.5625C6.81114 28.125 7.0496 28.2238 7.22541 28.3996C7.40123 28.5754 7.5 28.8139 7.5 29.0625C7.5 29.3111 7.40123 29.5496 7.22541 29.7254C7.0496 29.9012 6.81114 30 6.5625 30H0.9375C0.68886 30 0.450403 29.9012 0.274587 29.7254C0.0987721 29.5496 0 29.3111 0 29.0625V23.4375C0 23.1889 0.0987721 22.9504 0.274587 22.7746C0.450403 22.5988 0.68886 22.5 0.9375 22.5ZM29.0625 22.5C29.3111 22.5 29.5496 22.5988 29.7254 22.7746C29.9012 22.9504 30 23.1889 30 23.4375V29.0625C30 29.3111 29.9012 29.5496 29.7254 29.7254C29.5496 29.9012 29.3111 30 29.0625 30H23.4375C23.1889 30 22.9504 29.9012 22.7746 29.7254C22.5988 29.5496 22.5 29.3111 22.5 29.0625C22.5 28.8139 22.5988 28.5754 22.7746 28.3996C22.9504 28.2238 23.1889 28.125 23.4375 28.125H28.125V23.4375C28.125 23.1889 28.2238 22.9504 28.3996 22.7746C28.5754 22.5988 28.8139 22.5 29.0625 22.5ZM7.5 7.5H9.375V9.375H7.5V7.5Z" fill="white"/>
<path d="M13.125 3.75H3.75V13.125H13.125V3.75ZM5.625 5.625H11.25V11.25H5.625V5.625ZM9.375 20.625H7.5V22.5H9.375V20.625Z" fill="white"/>
<path d="M13.125 16.875H3.75V26.25H13.125V16.875ZM5.625 18.75H11.25V24.375H5.625V18.75ZM20.625 7.5H22.5V9.375H20.625V7.5Z" fill="white"/>
<path d="M16.875 3.75H26.25V13.125H16.875V3.75ZM18.75 5.625V11.25H24.375V5.625H18.75ZM15 15V18.75H16.875V20.625H15V22.5H18.75V18.75H20.625V22.5H22.5V20.625H26.25V18.75H20.625V15H15ZM18.75 18.75H16.875V16.875H18.75V18.75ZM26.25 22.5H24.375V24.375H20.625V26.25H26.25V22.5ZM18.75 26.25V24.375H15V26.25H18.75Z" fill="white"/>
<path d="M22.5 16.875H26.25V15H22.5V16.875Z" fill="white"/>
</g>
<defs>
<clipPath id="clip0_537_312">
<rect width="30" height="30" fill="white"/>
</clipPath>
</defs>
</svg>
