<svg width="128" height="128" viewBox="0 0 128 128" fill="none" xmlns="http://www.w3.org/2000/svg">
<path d="M64 112C90.5097 112 112 90.5097 112 64C112 37.4903 90.5097 16 64 16C37.4903 16 16 37.4903 16 64C16 90.5097 37.4903 112 64 112Z" stroke="#878688" stroke-width="8" stroke-linecap="round" stroke-linejoin="round"/>
<path d="M64 80C75.0457 80 84 71.0457 84 60C84 48.9543 75.0457 40 64 40C52.9543 40 44 48.9543 44 60C44 71.0457 52.9543 80 64 80Z" stroke="#878688" stroke-width="8" stroke-linecap="round" stroke-linejoin="round"/>
<path d="M31.9062 99.6992C34.9158 93.7713 39.508 88.7925 45.174 85.3148C50.8399 81.837 57.3581 79.9961 64.0062 79.9961C70.6544 79.9961 77.1726 81.837 82.8385 85.3148C88.5045 88.7925 93.0967 93.7713 96.1062 99.6992" stroke="#878688" stroke-width="8" stroke-linecap="round" stroke-linejoin="round"/>
</svg>
