<svg width="24" height="24" viewBox="0 0 24 24" fill="none" xmlns="http://www.w3.org/2000/svg">
<path d="M21.0028 12.207C21.0028 11.6015 20.9491 11.0266 20.8571 10.467H12.1954V13.9241H17.1548C16.9325 15.0585 16.281 16.0167 15.3152 16.6682V18.9678H18.274C20.0063 17.3657 21.0028 15.0049 21.0028 12.207Z" fill="#4285F4"/>
<path d="M12.1938 21.1983C14.6774 21.1983 16.7546 20.3705 18.2724 18.9677L15.3136 16.6682C14.4857 17.2201 13.4356 17.5573 12.1938 17.5573C9.79462 17.5573 7.76333 15.94 7.03514 13.7554H3.98438V16.1239C5.49443 19.1287 8.59884 21.1983 12.1938 21.1983Z" fill="#34A853"/>
<path d="M7.03567 13.7555C6.84404 13.2036 6.74439 12.6133 6.74439 12.0001C6.74439 11.3869 6.8517 10.7967 7.03567 10.2448V7.87622H3.98491C3.35636 9.11799 2.99609 10.5131 2.99609 12.0001C2.99609 13.4872 3.35636 14.8822 3.98491 16.124L7.03567 13.7555Z" fill="#FBBC05"/>
<path d="M12.1938 6.44274C13.5506 6.44274 14.7617 6.91032 15.7198 7.82249L18.3414 5.20098C16.7546 3.71392 14.6774 2.80176 12.1938 2.80176C8.59884 2.80176 5.49443 4.87137 3.98438 7.87614L7.03514 10.2447C7.76333 8.06011 9.79462 6.44274 12.1938 6.44274Z" fill="#EA4335"/>
</svg>
