<svg width="45" height="48" viewBox="0 0 45 48" fill="none" xmlns="http://www.w3.org/2000/svg">
<path d="M19.5934 0C19.1346 0 18.871 0.519737 18.871 1.41602C18.871 2.25396 19.1346 2.95932 19.7154 2.90628C20.1938 2.86385 20.3597 2.06834 20.3158 1.36298C20.2719 0.525042 20.1742 0 19.5934 0Z" fill="#FDFFFF"/>
<path d="M0 26.1386C0 41.6753 14.2007 48.27 23.4811 47.9912C34.2943 47.667 45.7064 39.4058 44.9658 24.5824C44.2638 10.5371 32.4331 4.29256 22.2704 4.36389C10.459 4.45467 0 12.5667 0 26.1386Z" fill="#CECDD2"/>
<path d="M22.8434 45.0906C22.6774 45.0906 22.5048 45.0906 22.3388 45.084C17.3588 44.9183 12.4385 42.8241 8.83962 39.3448C4.98841 35.6203 2.87689 30.5837 2.90345 25.1693C2.96321 11.948 14.5434 5.81787 22.3985 5.81787H22.4649C33.1089 5.86426 41.8471 14.1217 42.0928 25.3151C42.1991 30.2987 40.1539 35.5276 36.1434 39.4641C32.3984 43.1289 27.4317 45.0906 22.8434 45.0906ZM22.3852 8.0181C15.3402 8.0181 4.92201 13.7705 4.89545 25.1693C4.87553 33.6918 11.489 42.453 22.5048 42.8241C26.7013 42.9566 31.0239 41.3529 34.5166 37.9266C38.142 34.3678 40.1805 29.7818 40.1074 25.3416C39.9348 15.7123 32.0465 8.05123 22.4716 8.00484C22.4583 8.00484 22.4052 8.0181 22.3852 8.0181Z" fill="#9B9B9D"/>
<path d="M18.3972 6.08038C17.9363 5.46441 13.2137 5.63947 8.13035 9.8864C3.08042 14.1074 2.3256 18.7758 3.23405 19.0222C4.26942 19.301 5.53191 14.7882 9.89382 10.9952C13.9017 7.52628 19.3124 7.30583 18.3972 6.08038ZM38.2964 23.1005C36.6865 23.321 38.3565 28.0023 34.6225 33.2413C31.3828 37.7865 27.7089 39.4334 28.1364 40.4319C28.7108 41.7676 34.5957 38.4414 37.3211 33.0209C39.786 28.119 39.492 22.9384 38.2964 23.1005Z" fill="#FEFFFA"/>
<path d="M17.0487 22.5544C17.7192 22.5608 18.3188 21.6592 18.8733 21.1093C20.0532 19.9328 21.2911 18.9992 22.7031 20.2653C26.1718 23.392 19.2086 26.5636 16.5651 30.8988C14.5922 34.1343 14.1925 36.6217 14.7405 37.2867C15.2885 37.9517 28.6283 37.9197 28.8088 37.5872C28.9894 37.2547 29.1763 32.8235 28.8669 32.6125C28.5574 32.4015 22.0003 32.523 22.0003 32.523C22.0003 32.523 22.5484 31.2569 24.7985 29.3259C27.2679 27.2094 29.2472 24.3 28.7186 20.8599C27.6225 13.7496 20.4014 13.4874 17.2743 15.962C14.2247 18.3726 14.8823 22.5288 17.0487 22.5544Z" fill="#9B9B9D"/>
</svg>
