<svg width="23" height="21" viewBox="0 0 23 21" fill="none" xmlns="http://www.w3.org/2000/svg">
<path d="M22.7604 18.8523H2.15625V0.238636C2.15625 0.107386 2.04844 0 1.91667 0H0.239583C0.107812 0 0 0.107386 0 0.238636V20.7614C0 20.8926 0.107812 21 0.239583 21H22.7604C22.8922 21 23 20.8926 23 20.7614V19.0909C23 18.9597 22.8922 18.8523 22.7604 18.8523ZM4.79167 16.4659H6.46875C6.60052 16.4659 6.70833 16.3585 6.70833 16.2273V11.9318C6.70833 11.8006 6.60052 11.6932 6.46875 11.6932H4.79167C4.6599 11.6932 4.55208 11.8006 4.55208 11.9318V16.2273C4.55208 16.3585 4.6599 16.4659 4.79167 16.4659ZM9.34375 16.4659H11.0208C11.1526 16.4659 11.2604 16.3585 11.2604 16.2273V6.68182C11.2604 6.55057 11.1526 6.44318 11.0208 6.44318H9.34375C9.21198 6.44318 9.10417 6.55057 9.10417 6.68182V16.2273C9.10417 16.3585 9.21198 16.4659 9.34375 16.4659ZM13.8958 16.4659H15.5729C15.7047 16.4659 15.8125 16.3585 15.8125 16.2273V9.00852C15.8125 8.87727 15.7047 8.76989 15.5729 8.76989H13.8958C13.7641 8.76989 13.6562 8.87727 13.6562 9.00852V16.2273C13.6562 16.3585 13.7641 16.4659 13.8958 16.4659ZM18.4479 16.4659H20.125C20.2568 16.4659 20.3646 16.3585 20.3646 16.2273V4.29545C20.3646 4.1642 20.2568 4.05682 20.125 4.05682H18.4479C18.3161 4.05682 18.2083 4.1642 18.2083 4.29545V16.2273C18.2083 16.3585 18.3161 16.4659 18.4479 16.4659Z" fill="#7A9A01"/>
</svg>
